<svg width="32" height="32" viewBox="0 0 32 32" fill="none" xmlns="http://www.w3.org/2000/svg">
<path d="M28 4C28.3536 4 28.6927 4.14048 28.9428 4.39052C29.1928 4.64057 29.3333 4.97971 29.3333 5.33333V14.6667C29.3333 15.0203 29.1928 15.3594 28.9428 15.6095C28.6927 15.8595 28.3536 16 28 16H25.332L25.3333 26.6667C25.3333 27.0203 25.1928 27.3594 24.9428 27.6095C24.6927 27.8595 24.3536 28 24 28H7.99996C7.64634 28 7.3072 27.8595 7.05715 27.6095C6.8071 27.3594 6.66663 27.0203 6.66663 26.6667L6.66529 15.9987L3.99996 16C3.64634 16 3.3072 15.8595 3.05715 15.6095C2.8071 15.3594 2.66663 15.0203 2.66663 14.6667V5.33333C2.66663 4.97971 2.8071 4.64057 3.05715 4.39052C3.3072 4.14048 3.64634 4 3.99996 4H12C12 5.06087 12.4214 6.07828 13.1715 6.82843C13.9217 7.57857 14.9391 8 16 8C17.0608 8 18.0782 7.57857 18.8284 6.82843C19.5785 6.07828 20 5.06087 20 4H28Z" fill="#8B8C94"/>
</svg>
