<svg width="32" height="32" viewBox="0 0 32 32" fill="none" xmlns="http://www.w3.org/2000/svg">
<path d="M21.3333 28L14.984 16.36L20 8L30.6666 28H21.3333ZM10.6666 13.3333L18.6666 28H2.66663L10.6666 13.3333ZM7.33329 10.6667C6.44924 10.6667 5.60139 10.3155 4.97627 9.69036C4.35115 9.06523 3.99996 8.21739 3.99996 7.33333C3.99996 6.44928 4.35115 5.60143 4.97627 4.97631C5.60139 4.35119 6.44924 4 7.33329 4C8.21735 4 9.06519 4.35119 9.69032 4.97631C10.3154 5.60143 10.6666 6.44928 10.6666 7.33333C10.6666 8.21739 10.3154 9.06523 9.69032 9.69036C9.06519 10.3155 8.21735 10.6667 7.33329 10.6667Z" fill="#8B8C94"/>
</svg>
