<svg width="32" height="32" viewBox="0 0 32 32" fill="none" xmlns="http://www.w3.org/2000/svg">
<path d="M16 2.66666C23.3626 2.66666 29.3333 7.97066 29.3333 14.5187C29.3322 16.4829 28.5514 18.3664 27.1623 19.7553C25.7732 21.1441 23.8896 21.9246 21.9253 21.9253H19.304C18.0746 21.9253 17.0813 22.9187 17.0813 24.148C17.0813 24.7107 17.304 25.2293 17.644 25.6147C18 26.0147 18.2226 26.5333 18.2226 27.1107C18.2226 28.3413 17.2 29.3333 16 29.3333C8.63729 29.3333 2.66663 23.3627 2.66663 16C2.66663 8.63733 8.63729 2.66666 16 2.66666ZM9.99996 16C10.5304 16 11.0391 15.7893 11.4142 15.4142C11.7892 15.0391 12 14.5304 12 14C12 13.4696 11.7892 12.9609 11.4142 12.5858C11.0391 12.2107 10.5304 12 9.99996 12C9.46953 12 8.96082 12.2107 8.58575 12.5858C8.21067 12.9609 7.99996 13.4696 7.99996 14C7.99996 14.5304 8.21067 15.0391 8.58575 15.4142C8.96082 15.7893 9.46953 16 9.99996 16V16ZM22 16C22.5304 16 23.0391 15.7893 23.4142 15.4142C23.7892 15.0391 24 14.5304 24 14C24 13.4696 23.7892 12.9609 23.4142 12.5858C23.0391 12.2107 22.5304 12 22 12C21.4695 12 20.9608 12.2107 20.5857 12.5858C20.2107 12.9609 20 13.4696 20 14C20 14.5304 20.2107 15.0391 20.5857 15.4142C20.9608 15.7893 21.4695 16 22 16ZM16 12C16.5304 12 17.0391 11.7893 17.4142 11.4142C17.7892 11.0391 18 10.5304 18 10C18 9.46956 17.7892 8.96086 17.4142 8.58578C17.0391 8.21071 16.5304 8 16 8C15.4695 8 14.9608 8.21071 14.5857 8.58578C14.2107 8.96086 14 9.46956 14 10C14 10.5304 14.2107 11.0391 14.5857 11.4142C14.9608 11.7893 15.4695 12 16 12Z" fill="#8B8C94"/>
</svg>
