<svg width="512" height="512" viewBox="0 0 512 512" fill="none" xmlns="http://www.w3.org/2000/svg">
<rect width="512" height="512" fill="#F77676"/>
<path d="M231.205 351.306C246.56 361.695 266.828 360.473 277.883 351.306C282.991 347.071 287.094 340.355 290.11 332.959C290.11 332.959 275.645 318.281 260.232 318.281C242.558 318.281 216.503 329.942 216.503 329.942C219.557 338.633 224.411 346.709 231.205 351.306Z" fill="#75272D"/>
<path fill-rule="evenodd" clip-rule="evenodd" d="M296.186 305.071C296.186 305.071 277.137 300.097 264.636 299.199C244.235 297.735 212.592 305.071 212.592 305.071C212.218 312.107 213.477 321.327 216.503 329.942C216.503 329.942 242.558 318.281 260.232 318.281C275.645 318.281 290.11 332.959 290.11 332.959C293.958 323.525 296.04 312.982 296.186 305.071Z" fill="#A4373F"/>
<path d="M293.852 293.861C285.335 284.539 237.347 280.417 216.465 293.861C214.201 295.319 212.888 299.514 212.592 305.071C212.592 305.071 244.235 297.735 264.636 299.199C277.137 300.097 296.187 305.071 296.187 305.071C296.285 299.796 295.523 295.69 293.852 293.861Z" fill="#E2E2E2"/>
<path d="M220.67 204.524C220.67 195.606 213.441 188.377 204.523 188.377C195.606 188.377 188.377 195.606 188.377 204.524V238.284C188.377 247.201 195.606 254.43 204.523 254.43C213.441 254.43 220.67 247.201 220.67 238.284V204.524Z" fill="#6D2020"/>
<path d="M321.949 204.524C321.949 195.606 314.721 188.377 305.803 188.377C296.886 188.377 289.657 195.606 289.657 204.524V238.284C289.657 247.201 296.886 254.43 305.803 254.43C314.721 254.43 321.949 247.201 321.949 238.284V204.524Z" fill="#6D2020"/>
<path d="M363.582 289.615C377.139 292.516 389.352 289.153 390.86 282.103C392.368 275.053 382.601 266.987 369.044 264.086C355.487 261.185 343.274 264.548 341.766 271.598C340.257 278.648 350.024 286.714 363.582 289.615Z" fill="#F05757"/>
<path d="M145.934 289.615C132.377 292.516 120.164 289.153 118.656 282.103C117.147 275.053 126.915 266.987 140.472 264.086C154.029 261.185 166.242 264.548 167.75 271.598C169.259 278.648 159.491 286.714 145.934 289.615Z" fill="#F05757"/>
</svg>
