<svg width="86" height="163" viewBox="0 0 86 163" fill="none" xmlns="http://www.w3.org/2000/svg">
<path fill-rule="evenodd" clip-rule="evenodd" d="M62.449 130.367H54.6999V106.548C54.6999 101.87 61.997 101.496 63.3111 105.297C63.3111 105.297 61.5373 105.905 60.7776 108.032C60.7776 108.032 59.7186 113.945 59.8659 117.756C60.0606 122.792 62.449 130.367 62.449 130.367Z" fill="#D9D9D9"/>
<path d="M63.5126 106.548V130.367H62.449C62.449 130.367 60.0606 122.792 59.8659 117.756C59.7186 113.945 60.7776 108.032 60.7776 108.032C61.5373 105.905 63.3111 105.297 63.3111 105.297C63.4411 105.673 63.5126 106.09 63.5126 106.548Z" fill="#E0E0E0"/>
<path d="M64.326 132.621C64.7633 131.98 63.597 126.721 63.597 126.721C63.597 126.721 61.6545 127.635 60.098 127.857C59.9479 127.879 59.8014 127.894 59.6606 127.901C57.7297 127.999 54.8494 126.721 54.8494 126.721C54.8494 126.721 54.8065 126.888 54.7471 127.163C54.5167 128.23 54.0381 130.915 54.8494 131.736C55.413 132.306 57.0363 132.916 57.0363 132.916C57.0363 132.916 57.2848 134.169 58.0569 134.539C58.6224 134.81 59.2697 134.946 59.8829 134.923C60.1068 134.915 60.3262 134.886 60.5353 134.834C62.1927 134.424 63.5971 133.69 64.326 132.621Z" fill="#EA7373"/>
<path fill-rule="evenodd" clip-rule="evenodd" d="M57.3823 124.138H52.8763L53.94 147.081C53.94 147.081 55.1257 146.567 55.9152 146.625C56.5135 146.67 57.3823 147.081 57.3823 147.081V124.138Z" fill="#DCDCDC"/>
<path d="M51.0006 152.247H57.3823V147.081C57.3823 147.081 56.5135 146.67 55.9152 146.625C55.1257 146.567 53.94 147.081 53.94 147.081L52.8763 124.138H50.8965C50.8965 141.227 51.0006 135.158 51.0006 152.247Z" fill="#D2D2D2"/>
<path d="M58.3463 80.5303H34.947C34.947 80.5303 34.947 104.171 34.947 119.022C34.9471 120.267 36.1962 123.833 38.1423 127.481C38.1423 127.481 38.0272 125.218 38.0112 122.315C37.986 117.746 38.206 111.589 39.5053 110.159C40.407 109.167 41.8856 109.071 43.8234 108.944C44.4184 108.905 45.0568 108.863 45.735 108.792C47.2544 108.632 48.6908 108.395 49.5336 108.184C52.939 107.333 53.9461 107.179 55.3074 106.665C56.6187 106.169 58.3463 109.096 58.3463 109.096V80.5303Z" fill="#E8E8E8"/>
<path fill-rule="evenodd" clip-rule="evenodd" d="M58.3463 109.096V107.728V126.417C58.2744 128.506 55.0539 132.84 51.9647 135.332C51.9647 135.332 50.1414 136.446 48.47 136.446C46.8734 136.446 45.1272 133.559 45.1272 133.559L42.3923 129.304L40.2017 125.809L38.0112 122.315C37.986 117.746 38.206 111.589 39.5053 110.159C40.407 109.167 41.8856 109.071 43.8234 108.944C44.4184 108.905 45.0568 108.863 45.735 108.792C47.2544 108.632 48.6908 108.395 49.5336 108.184C52.939 107.333 53.9461 107.179 55.3074 106.665C56.6187 106.169 58.3463 109.096 58.3463 109.096Z" fill="#F4F4F4"/>
<path d="M38.1423 127.481C40.6984 132.272 44.4567 137.205 48.1661 137.205C49.2051 137.205 50.5715 136.456 51.9647 135.332C51.9647 135.332 50.1414 136.446 48.47 136.446C46.8734 136.446 45.1272 133.559 45.1272 133.559L42.3923 129.304L40.2017 125.809L38.0112 122.315C38.0272 125.218 38.1423 127.481 38.1423 127.481Z" fill="#E8E8E8"/>
<path d="M48.6219 124.138C48.8479 118.412 37.9859 119.883 37.9859 119.883L38.1378 127.48L39.2014 147.385C39.2014 147.385 39.9559 147.307 41.1767 147.385C42.1498 147.448 43.5554 148.145 43.5554 148.145V132.039C43.5554 128.392 48.346 131.127 48.6219 124.138Z" fill="#F4F4F4"/>
<path d="M35.5592 125.657V153.463H43.5554V148.145C43.5554 148.145 42.1498 147.448 41.1767 147.385C39.9559 147.307 39.2014 147.385 39.2014 147.385L38.1378 127.48L37.9859 119.883L34.947 119.275L35.5592 125.657Z" fill="#E8E8E8"/>
<path fill-rule="evenodd" clip-rule="evenodd" d="M35.8586 133.406H36.7703V108.539C36.7703 106.788 35.7993 105.615 34.4911 105.013C34.4911 105.013 32.5159 107.22 31.7562 109.703C29.179 118.126 35.8586 133.406 35.8586 133.406Z" fill="#EFEFEF"/>
<path d="M27.6537 108.539V133.406H35.8586C35.8586 133.406 29.179 118.126 31.7562 109.703C32.5159 107.22 34.4911 105.013 34.4911 105.013C31.7908 103.771 27.6537 104.964 27.6537 108.539Z" fill="#E4E4E4"/>
<path d="M26.8941 135.838C26.4384 135.177 27.6538 129.76 27.6538 129.76C27.6538 129.76 29.6783 130.701 31.3005 130.93C31.4569 130.953 31.6096 130.968 31.7563 130.975C33.7686 131.077 36.7705 129.76 36.7705 129.76C36.7705 129.76 36.8152 129.932 36.8771 130.216C37.1172 131.314 37.616 134.08 36.7705 134.926C36.183 135.513 34.4913 136.141 34.4913 136.141C34.4913 136.141 34.2322 137.432 33.4277 137.813C32.8383 138.092 32.1637 138.232 31.5246 138.209C31.2913 138.2 31.0626 138.17 30.8446 138.117C29.1174 137.694 27.6538 136.938 26.8941 135.838Z" fill="#EA7373"/>
<path fill-rule="evenodd" clip-rule="evenodd" d="M43 20.9479C34.0296 20.9479 25.7008 23.6947 18.8087 28.3931C18.8087 28.3931 12.2656 43.3392 12.4594 53.0079C12.6645 63.2431 12.7382 69.5325 17.3216 78.6864C20.8517 85.7368 26.8405 90.4609 32.0601 94.3366C37.2797 98.2123 41.1343 99.4151 47.5583 100.414C57.4346 101.95 70.9621 96.6157 70.9621 96.6157C80.1671 88.7293 86 77.0197 86 63.9479C86 40.1996 66.7482 20.9479 43 20.9479Z" fill="#F77676"/>
<path d="M0 63.9479C0 87.6961 19.2518 106.948 43 106.948C53.6764 106.948 63.444 103.057 70.9621 96.6157C70.9621 96.6157 57.4346 101.95 47.5583 100.414C41.1343 99.4151 37.2797 98.2123 32.0601 94.3366C26.8405 90.4609 20.8517 85.7368 17.3216 78.6864C12.7382 69.5325 12.6645 63.2431 12.4594 53.0079C12.2656 43.3392 18.8087 28.3931 18.8087 28.3931C7.45471 36.1333 0 49.17 0 63.9479Z" fill="#EA7373"/>
<path d="M44.8913 88.4106C48.0702 90.5614 52.2663 90.3083 54.5551 88.4106C55.6126 87.5337 56.462 86.1434 57.0865 84.6122C57.0865 84.6122 54.0917 81.5734 50.9009 81.5734C47.2418 81.5734 41.8476 83.9876 41.8476 83.9876C42.4798 85.7869 43.4847 87.4588 44.8913 88.4106Z" fill="#75272D"/>
<path fill-rule="evenodd" clip-rule="evenodd" d="M58.3445 78.8384C58.3445 78.8384 54.4006 77.8086 51.8126 77.6228C47.589 77.3197 41.0379 78.8384 41.0379 78.8384C40.9605 80.295 41.221 82.2039 41.8476 83.9876C41.8476 83.9876 47.2418 81.5734 50.9009 81.5734C54.0917 81.5734 57.0865 84.6122 57.0865 84.6122C57.8832 82.6589 58.3141 80.4763 58.3445 78.8384Z" fill="#A4373F"/>
<path d="M57.8611 76.5177C56.0978 74.5877 46.1629 73.7342 41.8396 76.5177C41.371 76.8195 41.0991 77.6879 41.0379 78.8384C41.0379 78.8384 47.589 77.3197 51.8126 77.6228C54.4006 77.8086 58.3445 78.8384 58.3445 78.8384C58.3648 77.7463 58.2071 76.8963 57.8611 76.5177Z" fill="#E2E2E2"/>
<rect x="35.5547" y="54.6792" width="6.68551" height="13.6749" rx="3.34276" fill="#6D2020"/>
<rect x="56.5228" y="54.6792" width="6.68551" height="13.6749" rx="3.34276" fill="#6D2020"/>
<path fill-rule="evenodd" clip-rule="evenodd" d="M46.3429 18.8205L49.8376 11.6792C49.8376 11.6792 40.6187 18.7872 36.3146 20.6438C33.0159 22.0668 26.8941 24.7463 26.8941 24.7463L42.3803 34.322L59.4289 32.3212C59.4289 32.3212 65.2301 27.3092 66.745 22.9038C68.4935 17.8188 66.0397 9.15596 66.0397 9.15596C66.0397 9.15596 60.8294 18.4614 55.0037 20.6438C50.7773 22.2271 43.456 21.0997 43.456 21.0997L46.3429 18.8205Z" fill="#F77676"/>
<path d="M54.6396 16.6656C50.3349 18.2243 46.3429 18.8205 46.3429 18.8205L43.456 21.0997C43.456 21.0997 50.7773 22.2271 55.0037 20.6438C60.8294 18.4614 66.0397 9.15596 66.0397 9.15596C66.0397 9.15596 59.6496 14.8515 54.6396 16.6656Z" fill="#EA7373"/>
<ellipse cx="71.5911" cy="72.9959" rx="5.19708" ry="2.70248" transform="rotate(12.0775 71.5911 72.9959)" fill="#F05757"/>
<ellipse rx="5.19708" ry="2.70248" transform="matrix(-0.977866 0.209234 0.209234 0.977866 25.4004 72.9959)" fill="#F05757"/>
<path d="M51.2957 150.85C51.1005 150.451 51.0006 148.601 51.0006 148.601C51.0006 148.601 50.9699 149.062 50.6801 149.844C50.6801 149.844 50.4152 150.868 50.6801 151.425C50.9163 151.922 51.2333 152.124 51.7258 152.368C52.3199 152.662 52.7533 152.628 53.4047 152.578L53.4463 152.574C53.8206 152.545 54.2789 152.405 54.6473 152.271C55.0262 152.132 55.3102 152 55.3102 152L58.2865 151.137C58.2938 150.702 58.7536 150.233 58.7536 150.233L56.47 150.451C56.47 150.451 52.1884 152.673 51.2957 150.85Z" fill="#F49B9B"/>
<path d="M55.1668 147.861C53.5439 148.177 52.586 149.728 52.586 149.728C52.586 149.728 53.0139 151.524 54.6473 152.271C54.8085 152.344 54.9814 152.408 55.1668 152.458C55.1931 152.466 55.2192 152.473 55.2451 152.48C55.2947 152.493 55.3438 152.507 55.3922 152.52C56.308 152.769 57.0257 152.929 57.891 152.458C58.4477 152.156 59.038 151.309 59.038 151.309L59.6115 149.01C59.6115 149.01 58.8641 148.098 57.891 147.861C56.8573 147.608 56.211 147.657 55.1668 147.861Z" fill="#EA7373"/>
<path d="M49.913 155.698C49.9802 155.775 50.0464 155.852 50.1148 155.932C50.6581 156.566 51.3343 157.355 53.6714 158.986C53.2218 158.388 53.0452 157.833 53.0064 157.172C52.7519 156.97 52.5308 156.806 52.3217 156.651C51.9358 156.364 51.5907 156.108 51.1523 155.698C50.4854 155.075 49.5752 153.973 49.5752 153.973C49.4233 154.547 49.4046 155.121 49.913 155.698Z" fill="#F5C2C2"/>
<path d="M50.6801 149.844C50.4047 150.587 50.114 151.528 50.0274 152.368C49.9921 152.71 49.8753 153.052 49.7588 153.392C49.6925 153.586 49.6263 153.779 49.5752 153.973C49.5752 153.973 50.4854 155.075 51.1523 155.698C51.5907 156.108 51.9358 156.364 52.3217 156.651C52.5308 156.806 52.7519 156.97 53.0064 157.172C52.9911 156.913 52.9971 156.637 53.0161 156.336C53.0938 155.108 53.4901 154.382 54.3065 153.462C54.6303 153.098 54.9956 152.785 55.3922 152.52C55.3438 152.507 55.2947 152.493 55.2451 152.48L55.1668 152.458C54.9814 152.408 54.8085 152.344 54.6473 152.271C54.2789 152.405 53.8206 152.545 53.4463 152.574L53.4047 152.578C52.7533 152.628 52.3199 152.662 51.7258 152.368C51.2333 152.124 50.9163 151.922 50.6801 151.425C50.4152 150.868 50.6801 149.844 50.6801 149.844Z" fill="#F7E0E0"/>
<path d="M54.5933 159.615C56.8539 160.596 60.508 161.535 62.5169 160.106C62.9706 159.783 63.4001 159.437 63.7812 159.066C62.8803 159.396 62.1697 159.423 61.1654 159.461L61.1646 159.461C61.0792 159.464 60.9918 159.468 60.9018 159.471C59.0345 159.545 57.9384 159.36 56.1704 158.753C54.8643 158.304 54.1499 157.947 53.0064 157.172C53.0452 157.833 53.2218 158.388 53.6714 158.986C53.9536 159.183 54.26 159.392 54.5933 159.615Z" fill="#F5C2C2"/>
<path fill-rule="evenodd" clip-rule="evenodd" d="M63.7812 159.066C63.9158 159.016 64.0547 158.96 64.1995 158.896C64.882 158.595 65.8247 157.891 65.8247 157.891C65.954 157.159 65.8705 156.595 65.7766 156.049C65.5929 154.981 65.3185 154.298 64.6296 153.462C63.4337 152.012 62.4891 151.416 60.615 151.307C59.8667 151.264 59.1011 151.293 58.3558 151.413C58.3048 151.326 58.2849 151.233 58.2865 151.137L55.3102 152C55.3102 152 55.0262 152.132 54.6473 152.271C54.8085 152.344 54.9814 152.408 55.1668 152.458L55.2451 152.48C55.2947 152.493 55.3438 152.507 55.3922 152.52C54.9956 152.785 54.6303 153.098 54.3065 153.462C53.4901 154.382 53.0938 155.108 53.0161 156.336C52.9971 156.637 52.9911 156.913 53.0064 157.172C54.1499 157.947 54.8643 158.304 56.1704 158.753C57.9384 159.36 59.0345 159.545 60.9018 159.471C60.9918 159.468 61.0792 159.464 61.1646 159.461L61.1654 159.461C62.1697 159.423 62.8803 159.396 63.7812 159.066Z" fill="#F77676"/>
<path d="M62.5169 160.106C60.508 161.535 56.8539 160.596 54.5933 159.615C54.26 159.392 53.9536 159.183 53.6714 158.986C53.6914 159.013 53.5686 158.726 53.5897 158.753C54.269 159.615 58.8946 161.626 62.3356 160.908C65.1321 160.324 65.4553 159.232 65.6022 158.736C65.6132 158.699 65.6232 158.665 65.6332 158.635C65.7223 158.367 65.784 158.121 65.8247 157.891C65.8247 157.891 64.882 158.595 64.1995 158.896C64.0547 158.96 63.9158 159.016 63.7812 159.066C63.4001 159.437 62.9706 159.783 62.5169 160.106Z" fill="#F5C2C2"/>
<path d="M35.6544 151.943C35.4476 151.522 35.5983 149.457 35.5983 149.457C35.5983 149.457 35.3092 150.053 35.0021 150.88C35.0021 150.88 34.7214 151.962 35.0021 152.551C35.2525 153.077 35.5884 153.29 36.1103 153.548C36.7399 153.859 37.1992 153.824 37.8895 153.77L37.9336 153.767C38.3303 153.736 38.8159 153.588 39.2064 153.446C39.608 153.299 39.9089 153.159 39.9089 153.159L43.063 152.247C43.0707 151.787 43.558 151.291 43.558 151.291L41.1379 151.522C41.1379 151.522 36.6005 153.872 35.6544 151.943Z" fill="#F49B9B"/>
<path d="M39.7569 148.782C38.037 149.117 37.0219 150.757 37.0219 150.757C37.0219 150.757 37.4754 152.656 39.2064 153.446C39.3772 153.524 39.5604 153.591 39.7569 153.644C39.7848 153.652 39.8124 153.659 39.8399 153.667C39.8925 153.681 39.9444 153.695 39.9958 153.709C40.9663 153.972 41.7269 154.142 42.6439 153.644C43.2339 153.324 43.8594 152.429 43.8594 152.429L44.4672 149.998C44.4672 149.998 43.6752 149.033 42.6439 148.782C41.5485 148.515 40.8636 148.567 39.7569 148.782Z" fill="#EA7373"/>
<path d="M34.1891 157.07C34.2603 157.151 34.3306 157.233 34.403 157.317C34.9788 157.988 35.6955 158.822 38.1722 160.547C37.6956 159.915 37.5086 159.327 37.4674 158.629C37.1977 158.415 36.9634 158.241 36.7418 158.077C36.3328 157.774 35.9671 157.504 35.5025 157.07C34.7957 156.411 33.8311 155.246 33.8311 155.246C33.6702 155.853 33.6503 156.46 34.1891 157.07Z" fill="#F5C2C2"/>
<path d="M35.0021 150.88C34.7103 151.666 34.4021 152.66 34.3104 153.548C34.273 153.91 34.1493 154.271 34.0257 154.632C33.9555 154.836 33.8853 155.041 33.8311 155.246C33.8311 155.246 34.7957 156.411 35.5025 157.07C35.9671 157.504 36.3328 157.774 36.7418 158.077C36.9634 158.241 37.1977 158.415 37.4674 158.629C37.4512 158.354 37.4576 158.063 37.4777 157.745C37.5601 156.446 37.98 155.678 38.8452 154.706C39.1883 154.32 39.5755 153.99 39.9958 153.709C39.9444 153.695 39.8925 153.681 39.8399 153.667L39.7569 153.644C39.5604 153.591 39.3772 153.524 39.2064 153.446C38.8159 153.588 38.3303 153.736 37.9336 153.767L37.8895 153.77C37.1992 153.824 36.7399 153.859 36.1103 153.548C35.5884 153.29 35.2525 153.077 35.0021 152.551C34.7214 151.962 35.0021 150.88 35.0021 150.88Z" fill="#F7E0E0"/>
<path d="M39.1491 161.212C41.5448 162.25 45.4173 163.242 47.5463 161.731C48.0271 161.39 48.4822 161.024 48.8861 160.632C47.9313 160.981 47.1782 161.009 46.114 161.049L46.1131 161.049C46.0227 161.053 45.9299 161.056 45.8347 161.06C43.8557 161.139 42.6941 160.942 40.8205 160.3C39.4363 159.826 38.6793 159.449 37.4674 158.629C37.5086 159.327 37.6956 159.915 38.1722 160.547C38.4712 160.755 38.7959 160.977 39.1491 161.212Z" fill="#F5C2C2"/>
<path fill-rule="evenodd" clip-rule="evenodd" d="M48.8861 160.632C49.0288 160.579 49.176 160.52 49.3294 160.452C50.0527 160.133 51.0517 159.389 51.0517 159.389C51.1887 158.615 51.1003 158.019 51.0007 157.441C50.806 156.311 50.5152 155.589 49.7852 154.706C48.5178 153.172 47.5167 152.542 45.5307 152.427C44.7377 152.381 43.9264 152.412 43.1365 152.538C43.0825 152.447 43.0613 152.348 43.063 152.247L39.9089 153.159C39.9089 153.159 39.608 153.299 39.2064 153.446C39.3772 153.524 39.5604 153.591 39.7569 153.644L39.8399 153.667C39.8925 153.681 39.9444 153.695 39.9958 153.709C39.5755 153.99 39.1883 154.32 38.8452 154.706C37.98 155.678 37.5601 156.446 37.4777 157.745C37.4576 158.063 37.4512 158.354 37.4674 158.629C38.6793 159.449 39.4363 159.826 40.8205 160.3C42.6941 160.942 43.8557 161.139 45.8347 161.06C45.9299 161.056 46.0227 161.053 46.1131 161.049L46.114 161.049C47.1782 161.009 47.9313 160.981 48.8861 160.632Z" fill="#F77676"/>
<path d="M47.5463 161.731C45.4173 163.242 41.5448 162.25 39.1491 161.212C38.7959 160.977 38.4712 160.755 38.1722 160.547C38.1934 160.575 38.0632 160.272 38.0855 160.3C38.8054 161.212 43.7075 163.339 47.3541 162.579C50.3177 161.962 50.6602 160.808 50.8159 160.283C50.8275 160.243 50.8381 160.208 50.8487 160.176C50.9431 159.893 51.0085 159.632 51.0517 159.389C51.0517 159.389 50.0527 160.133 49.3294 160.452C49.176 160.52 49.0288 160.579 48.8861 160.632C48.4822 161.024 48.0271 161.39 47.5463 161.731Z" fill="#F5C2C2"/>
</svg>
