<?xml version="1.0" encoding="utf-8"?>
<!-- Generator: Adobe Illustrator 26.3.1, SVG Export Plug-In . SVG Version: 6.00 Build 0)  -->
<svg version="1.1" id="Calque_1" xmlns="http://www.w3.org/2000/svg" xmlns:xlink="http://www.w3.org/1999/xlink" x="0px" y="0px"
	 viewBox="0 0 48 48" style="enable-background:new 0 0 48 48;" xml:space="preserve">
<style type="text/css">
	.st0{fill:#232736;}
</style>
<path class="st0" d="M31,33.8H17c-0.3,0-0.5-0.1-0.7-0.3c-0.2-0.2-0.3-0.4-0.3-0.7v-9h-3l10.3-9.4c0.2-0.2,0.4-0.3,0.7-0.3
	s0.5,0.1,0.7,0.3L35,23.8h-3v9c0,0.3-0.1,0.5-0.3,0.7S31.3,33.8,31,33.8z M18,31.8h12V22l-6-5.5L18,22V31.8z M20,27.8h8v2h-8V27.8z"
	/>
</svg>
