<?xml version="1.0" encoding="utf-8"?>
<!-- Generator: Adobe Illustrator 26.3.1, SVG Export Plug-In . SVG Version: 6.00 Build 0)  -->
<svg version="1.1" id="Calque_1" xmlns="http://www.w3.org/2000/svg" xmlns:xlink="http://www.w3.org/1999/xlink" x="0px" y="0px"
	 viewBox="0 0 48 48" style="enable-background:new 0 0 48 48;" xml:space="preserve">
<style type="text/css">
	.st0{fill:#232736;}
</style>
<path class="st0" d="M16,34.5c0-2.1,0.8-4.2,2.3-5.7s3.5-2.3,5.7-2.3c2.1,0,4.2,0.8,5.7,2.3s2.3,3.5,2.3,5.7h-2
	c0-1.6-0.6-3.1-1.8-4.2c-1.1-1.1-2.7-1.8-4.2-1.8s-3.1,0.6-4.2,1.8c-1.2,1.1-1.8,2.6-1.8,4.2H16z M24,25.5c-3.3,0-6-2.7-6-6
	s2.7-6,6-6s6,2.7,6,6S27.3,25.5,24,25.5z M24,23.5c2.2,0,4-1.8,4-4s-1.8-4-4-4s-4,1.8-4,4S21.8,23.5,24,23.5z"/>
</svg>
