<?xml version="1.0" encoding="utf-8"?>
<!-- Generator: Adobe Illustrator 26.3.1, SVG Export Plug-In . SVG Version: 6.00 Build 0)  -->
<svg version="1.1" id="Calque_1" xmlns="http://www.w3.org/2000/svg" xmlns:xlink="http://www.w3.org/1999/xlink" x="0px" y="0px"
	 viewBox="0 0 48 48" style="enable-background:new 0 0 48 48;" xml:space="preserve">
<style type="text/css">
	.st0{fill:#232736;}
</style>
<path class="st0" d="M29.9,28.5l4.3,4.3l-1.4,1.4l-4.3-4.3c-1.6,1.3-3.6,2-5.6,2c-5,0-9-4-9-9s4-9,9-9s9,4,9,9
	C31.8,24.9,31.2,26.9,29.9,28.5z M27.9,27.7c1.3-1.3,2-3.1,2-4.9c0-3.9-3.1-7-7-7s-7,3.1-7,7s3.1,7,7,7c1.8,0,3.6-0.7,4.9-2
	L27.9,27.7z"/>
</svg>
