<svg width="159" height="200" viewBox="0 0 159 200" fill="none" xmlns="http://www.w3.org/2000/svg">
    <path d="M55.7515 3.42774C23.4581 13.4514 0 43.628 0 79.2975C0 102.601 8.05102 118.777 23.2024 137.557L68.6122 31.261L55.7515 3.42774Z"
          fill="white"/>
    <path d="M49.2782 166.888C45.7949 163.12 42.484 159.54 39.3494 156.105L39.9906 156.38L54.3824 122.691C55.2691 122 56.2327 121.34 57.2712 120.712C64.2026 116.518 73.8507 114.238 83.4323 114.238C93.0104 114.238 102.5 116.517 109.277 120.68C109.592 120.874 109.901 121.07 110.202 121.27L123.853 150.814C119.358 155.835 114.447 161.145 109.136 166.889C100.259 176.49 90.2596 187.304 79.2079 200C68.1562 187.304 58.1587 176.492 49.2809 166.891L49.2782 166.888Z"
          fill="white"/>
    <path d="M99.4005 97.8937L81.5134 59.1821L64.7116 98.5124C70.896 96.9646 77.3023 96.2382 83.4323 96.2382C88.6748 96.2382 94.0984 96.7695 99.4005 97.8937Z"
          fill="white"/>
    <path d="M142.529 127.858C152.943 112.88 158.416 98.5115 158.416 79.2975C158.416 36.868 125.224 2.21058 83.4511 0L142.529 127.858Z"
          fill="white"/>
</svg>
